<svg width="4" height="5" viewBox="0 0 4 5" fill="none" xmlns="http://www.w3.org/2000/svg">
<path d="M3.24518 1.14317C3.0866 0.584553 2.57844 0.20253 1.9982 0.20253C1.281 0.20253 0.697159 0.782772 0.697159 1.50357C0.697159 2.08381 1.07918 2.59197 1.6378 2.75055V3.75966C1.6378 3.95788 1.79998 4.12006 1.9982 4.12006C2.19642 4.12006 2.3586 3.95788 2.3586 3.75966V2.75055C3.04696 2.55233 3.447 1.83153 3.24518 1.14317ZM1.9982 2.08021C1.67744 2.08021 1.41796 1.82072 1.41796 1.49996C1.41796 1.17921 1.67744 0.919723 1.9982 0.919723C2.31895 0.919723 2.57844 1.17921 2.57844 1.49996C2.57844 1.82072 2.31895 2.08021 1.9982 2.08021Z" fill="white"/>
</svg>
