<svg width="15" height="13" viewBox="0 0 15 13" fill="none" xmlns="http://www.w3.org/2000/svg">
<path d="M7.39342 4.03272L9.39751 6.03681L9.40705 5.93184C9.40705 4.87888 8.55135 4.02318 7.49839 4.02318L7.39342 4.03272Z" fill="white"/>
<path d="M7.49841 2.75074C9.25438 2.75074 10.6795 4.17588 10.6795 5.93184C10.6795 6.34221 10.5968 6.73348 10.4537 7.09293L12.3146 8.95388C13.2753 8.15224 14.0324 7.11521 14.5 5.93184C13.3962 3.13885 10.6827 1.1602 7.49844 1.1602C6.60773 1.1602 5.75521 1.31925 4.96312 1.60555L6.33735 2.97659C6.69678 2.83663 7.08805 2.75074 7.49841 2.75074Z" fill="white"/>
<path d="M1.13621 1.0171L2.58679 2.46768L2.87628 2.75717C1.82652 3.5779 0.996251 4.66902 0.5 5.9319C1.60067 8.72489 4.31731 10.7035 7.49842 10.7035C8.48457 10.7035 9.42616 10.5127 10.2882 10.1659L10.5587 10.4363L12.4132 12.2941L13.2244 11.4861L1.94739 0.205925L1.13621 1.0171ZM4.65452 4.53222L5.63748 5.51518C5.60885 5.65198 5.58976 5.78875 5.58976 5.9319C5.58976 6.98485 6.44547 7.84055 7.49842 7.84055C7.64157 7.84055 7.77836 7.82147 7.91197 7.79284L8.89493 8.7758C8.47183 8.98575 8.00105 9.113 7.49842 9.113C5.74245 9.113 4.31731 7.68786 4.31731 5.9319C4.31731 5.42929 4.44457 4.95848 4.65452 4.53222Z" fill="white"/>
</svg>
