<svg width="18" height="13" viewBox="0 0 18 13" fill="none" xmlns="http://www.w3.org/2000/svg">
<path d="M1.99414 0.926498H16.0059C16.8297 0.926498 17.5 1.59677 17.5 2.42064V11.0794C17.5 11.9033 16.8297 12.5736 16.0059 12.5736H1.99414C1.17027 12.5736 0.5 11.9033 0.5 11.0794V2.42064C0.5 1.59677 1.17027 0.926498 1.99414 0.926498ZM2.18914 1.92259L2.38856 2.08864L8.40719 7.10035C8.75071 7.38637 9.24936 7.38637 9.59281 7.10035L15.6114 2.08864L15.8109 1.92259H2.18914ZM16.5039 2.64171L11.6001 6.72513L16.5039 9.98876V2.64171ZM1.99414 11.5775H16.0059C16.2465 11.5775 16.4478 11.4059 16.4939 11.1787L10.8014 7.39015L10.2302 7.86582C9.87377 8.16259 9.43685 8.31097 8.99997 8.31097C8.56308 8.31097 8.12619 8.16259 7.76976 7.86582L7.19853 7.39015L1.50605 11.1786C1.55221 11.4059 1.75348 11.5775 1.99414 11.5775ZM1.49609 9.98876L6.39993 6.72516L1.49609 2.64171V9.98876Z" fill="white"/>
</svg>
