<svg width="21" height="13" viewBox="0 0 21 13" fill="none" xmlns="http://www.w3.org/2000/svg">
<path d="M10.3676 4.37478L13.225 6.39452L13.2386 6.28873C13.2386 5.22755 12.0186 4.36516 10.5173 4.36516L10.3676 4.37478Z" fill="white"/>
<path d="M10.5171 3.08278C13.0208 3.08278 15.0527 4.51905 15.0527 6.28873C15.0527 6.7023 14.9348 7.09663 14.7307 7.45889L17.384 9.33437C18.7538 8.52648 19.8333 7.48135 20.5 6.28873C18.9262 3.47392 15.0573 1.47981 10.5171 1.47981C9.24716 1.47981 8.03165 1.6401 6.90228 1.92864L8.86166 3.31039C9.37413 3.16934 9.93201 3.08278 10.5171 3.08278Z" fill="white"/>
<path d="M1.44595 1.3356L3.51419 2.79751L3.92694 3.08926C2.43019 3.9164 1.2464 5.01605 0.538849 6.28879C2.10818 9.1036 5.98157 11.0977 10.5172 11.0977C11.9232 11.0977 13.2658 10.9054 14.4949 10.5559L14.8805 10.8284L17.5247 12.7007L18.6813 11.8864L2.60253 0.518082L1.44595 1.3356ZM6.46236 4.87818L7.86386 5.86882C7.82304 6.00668 7.79582 6.14452 7.79582 6.28879C7.79582 7.34997 9.01589 8.21236 10.5172 8.21236C10.7213 8.21236 10.9163 8.19312 11.1068 8.16427L12.5083 9.1549C11.9051 9.3665 11.2338 9.49474 10.5172 9.49474C8.01353 9.49474 5.98157 8.05847 5.98157 6.28879C5.98157 5.78226 6.16301 5.30777 6.46236 4.87818Z" fill="white"/>
</svg>
