<svg width="14" height="18" viewBox="0 0 14 18" fill="none" xmlns="http://www.w3.org/2000/svg">
<path d="M11.5032 7.4796V4.78742C11.5104 3.56927 11.0239 2.39798 10.1553 1.54383C9.31557 0.707706 8.21635 0.25 7.05226 0.25C7.03424 0.25 7.01262 0.25 6.9946 0.25C4.51145 0.253604 2.49322 2.28625 2.49322 4.78742V7.4796C1.55619 7.59132 0.871429 8.37699 0.871429 9.32844V15.3759C0.871429 16.4031 1.69314 17.25 2.72027 17.25H11.2797C12.3069 17.25 13.1286 16.4031 13.1286 15.3759V9.32844C13.125 8.38059 12.4402 7.59132 11.5032 7.4796ZM3.21042 4.78742H3.21402C3.21402 2.68269 4.9115 0.959985 6.9982 0.959985H7.00181C7.9929 0.956381 8.94436 1.34922 9.64713 2.04839C10.3787 2.77279 10.786 3.76028 10.7788 4.78742V7.4832H9.98591V4.78742C9.99312 3.96931 9.66876 3.18364 9.08852 2.60701C8.54071 2.0592 7.79829 1.74926 7.02343 1.74926H7.00181C5.34398 1.74926 4.00329 3.11156 4.00329 4.78381V7.4832H3.21042V4.78742V4.78742ZM9.26872 4.78742V7.4832H4.72769V4.78742C4.72769 3.51161 5.74402 2.47366 7.00541 2.47366H7.02704C7.61088 2.47366 8.1731 2.70792 8.58756 3.12238C9.02725 3.56206 9.27592 4.16393 9.26872 4.78742ZM12.4402 15.3867C12.4402 16.0174 11.9285 16.5292 11.2978 16.5292H2.73469C2.10399 16.5292 1.59223 16.0174 1.59223 15.3867V9.34646C1.59223 8.71576 2.10399 8.204 2.73469 8.204H11.2978C11.9285 8.204 12.4402 8.71576 12.4402 9.34646V15.3867Z" fill="white"/>
</svg>
