<svg width="17" height="17" viewBox="0 0 17 17" fill="none" xmlns="http://www.w3.org/2000/svg">
<g clip-path="url(#clip0_2043_421)">
<path d="M8.38599 7.95726C9.44482 7.95726 10.3616 7.5775 11.1108 6.82823C11.8599 6.07909 12.2397 5.16247 12.2397 4.10351C12.2397 3.04492 11.86 2.12817 11.1107 1.37878C10.3615 0.62976 9.4447 0.25 8.38599 0.25C7.32703 0.25 6.4104 0.62976 5.66125 1.3789C4.91211 2.12805 4.53223 3.04479 4.53223 4.10351C4.53223 5.16247 4.91211 6.07921 5.66125 6.82836C6.41064 7.57738 7.32739 7.95726 8.38599 7.95726V7.95726ZM6.32434 2.04187C6.89917 1.46704 7.57349 1.18762 8.38599 1.18762C9.19836 1.18762 9.8728 1.46704 10.4478 2.04187C11.0226 2.61682 11.3021 3.29125 11.3021 4.10351C11.3021 4.91601 11.0226 5.59032 10.4478 6.16527C9.8728 6.74022 9.19836 7.01964 8.38599 7.01964C7.57373 7.01964 6.89941 6.7401 6.32434 6.16527C5.74939 5.59044 5.46985 4.91601 5.46985 4.10351C5.46985 3.29125 5.74939 2.61682 6.32434 2.04187Z" fill="white"/>
<path d="M15.129 12.5532C15.1074 12.2414 15.0637 11.9013 14.9994 11.5422C14.9344 11.1804 14.8508 10.8383 14.7507 10.5257C14.6472 10.2026 14.5067 9.88351 14.3328 9.57773C14.1525 9.26034 13.9406 8.98398 13.7028 8.75656C13.4541 8.51865 13.1497 8.32736 12.7976 8.18784C12.4468 8.04904 12.058 7.97873 11.6421 7.97873C11.4788 7.97873 11.3208 8.04575 11.0157 8.24436C10.828 8.36679 10.6084 8.50839 10.3633 8.66501C10.1537 8.79855 9.86975 8.92368 9.51904 9.03696C9.17688 9.14767 8.82947 9.20383 8.48645 9.20383C8.14368 9.20383 7.79626 9.14767 7.45386 9.03696C7.10352 8.9238 6.81946 8.79868 6.61023 8.66513C6.36743 8.50998 6.14771 8.36838 5.95715 8.24423C5.65234 8.04563 5.49438 7.97861 5.33105 7.97861C4.91504 7.97861 4.52637 8.04904 4.17566 8.18796C3.82385 8.32724 3.51929 8.51852 3.27039 8.75668C3.03259 8.98422 2.82068 9.26047 2.6405 9.57773C2.4668 9.88351 2.32617 10.2025 2.22266 10.5258C2.12268 10.8385 2.03906 11.1804 1.97412 11.5422C1.90967 11.9008 1.86609 12.2411 1.84448 12.5536C1.82324 12.8591 1.8125 13.1771 1.8125 13.4984C1.8125 14.3336 2.078 15.0097 2.60156 15.5084C3.11865 16.0004 3.80273 16.25 4.63489 16.25H12.339C13.1709 16.25 13.855 16.0004 14.3722 15.5084C14.8959 15.0101 15.1614 14.3337 15.1614 13.4983C15.1613 13.1759 15.1504 12.8579 15.129 12.5532V12.5532ZM13.7257 14.8291C13.384 15.1543 12.9304 15.3123 12.3389 15.3123H4.63489C4.04321 15.3123 3.5896 15.1543 3.24805 14.8292C2.91296 14.5102 2.75012 14.0748 2.75012 13.4984C2.75012 13.1986 2.76001 12.9025 2.77979 12.6184C2.79907 12.3396 2.8385 12.0333 2.89697 11.7078C2.95471 11.3864 3.0282 11.0848 3.1156 10.8117C3.19946 10.5499 3.31384 10.2906 3.45569 10.0409C3.59106 9.80282 3.74683 9.5986 3.9187 9.43405C4.07947 9.28012 4.2821 9.15414 4.52087 9.05966C4.7417 8.97226 4.98987 8.92441 5.25928 8.91721C5.29211 8.93466 5.35059 8.96799 5.44531 9.02975C5.63806 9.15536 5.86023 9.29867 6.10583 9.45553C6.38269 9.63205 6.73938 9.79147 7.16553 9.92904C7.6012 10.0699 8.04553 10.1414 8.48657 10.1414C8.92761 10.1414 9.37207 10.0699 9.8075 9.92917C10.234 9.79135 10.5906 9.63205 10.8678 9.45529C11.1191 9.29465 11.3351 9.15549 11.5278 9.02975C11.6226 8.96811 11.681 8.93466 11.7139 8.91721C11.9834 8.92441 12.2316 8.97226 12.4525 9.05966C12.6912 9.15414 12.8938 9.28024 13.0546 9.43405C13.2264 9.59848 13.3822 9.8027 13.5176 10.041C13.6595 10.2906 13.774 10.55 13.8578 10.8116C13.9453 11.085 14.0189 11.3866 14.0765 11.7077C14.1349 12.0338 14.1744 12.3402 14.1937 12.6185V12.6187C14.2136 12.9018 14.2236 13.1977 14.2238 13.4984C14.2236 14.0749 14.0608 14.5102 13.7257 14.8291V14.8291Z" fill="white"/>
</g>
<defs>
<clipPath id="clip0_2043_421">
<rect width="16" height="16" fill="white" transform="translate(0.5 0.25)"/>
</clipPath>
</defs>
</svg>
